<?xml version="1.0" standalone="no"?>
<!DOCTYPE svg PUBLIC "-//W3C//DTD SVG 20010904//EN"
 "http://www.w3.org/TR/2001/REC-SVG-20010904/DTD/svg10.dtd">
<svg version="1.0" xmlns="http://www.w3.org/2000/svg"
 width="3464.000000pt" height="3464.000000pt" viewBox="0 0 3464.000000 3464.000000"
 preserveAspectRatio="xMidYMid meet">

<g transform="translate(0.000000,3464.000000) scale(0.100000,-0.100000)"
fill="#000000" stroke="none">
<path d="M8415 31380 c-291 -9 -668 -50 -905 -96 -41 -8 -116 -21 -167 -28
-50 -8 -96 -17 -103 -21 -6 -4 -43 -13 -83 -20 -40 -7 -115 -25 -167 -39 -52
-14 -122 -32 -155 -41 -85 -22 -191 -54 -250 -75 -27 -10 -66 -23 -85 -30 -19
-7 -57 -18 -84 -26 -43 -12 -159 -56 -306 -114 -234 -94 -600 -268 -772 -368
-21 -12 -55 -32 -75 -44 -21 -12 -51 -28 -68 -36 -16 -9 -74 -44 -127 -79 -54
-35 -100 -63 -102 -63 -5 0 -114 -74 -219 -147 -37 -26 -94 -66 -125 -88 -106
-74 -486 -385 -593 -485 -260 -244 -549 -554 -708 -759 -24 -31 -74 -94 -111
-141 -36 -47 -89 -116 -115 -155 -58 -84 -188 -278 -214 -320 -10 -16 -36 -57
-58 -90 -22 -34 -42 -67 -46 -75 -4 -8 -20 -37 -36 -65 -17 -27 -38 -66 -49
-85 -10 -19 -29 -53 -42 -75 -38 -65 -205 -404 -239 -485 -18 -41 -36 -82 -41
-91 -21 -40 -167 -419 -210 -549 -38 -115 -95 -309 -115 -395 -8 -33 -21 -78
-29 -100 -8 -22 -15 -51 -16 -64 0 -13 -9 -58 -20 -100 -26 -100 -48 -213 -66
-336 -8 -55 -19 -116 -24 -135 -5 -19 -14 -87 -20 -150 -6 -63 -15 -141 -21
-173 -31 -173 -32 -385 -36 -5447 -4 -4982 -1 -5765 27 -5980 4 -36 13 -114
20 -175 6 -60 20 -162 30 -225 11 -63 24 -142 29 -175 19 -113 68 -342 97
-455 8 -30 21 -80 29 -110 7 -30 25 -93 39 -140 13 -47 33 -114 43 -151 11
-36 23 -71 27 -78 5 -7 14 -34 22 -59 19 -67 52 -162 69 -199 8 -17 15 -36 15
-42 0 -6 9 -30 19 -53 10 -24 28 -65 39 -93 159 -389 404 -861 573 -1107 11
-15 19 -30 19 -33 0 -3 15 -27 33 -53 61 -86 144 -207 168 -242 51 -75 258
-336 395 -496 141 -166 467 -490 668 -663 92 -80 178 -153 190 -161 11 -8 67
-51 123 -95 56 -44 147 -111 203 -150 55 -38 123 -86 150 -105 28 -19 71 -48
97 -64 27 -17 77 -49 113 -72 106 -69 424 -245 580 -321 136 -66 167 -81 287
-134 27 -11 64 -29 84 -40 20 -10 42 -19 49 -19 7 0 26 -6 43 -14 74 -34 290
-116 304 -116 8 0 35 -9 61 -19 74 -30 249 -85 390 -122 39 -10 107 -28 150
-40 42 -12 106 -27 142 -34 36 -7 97 -20 135 -28 196 -43 522 -94 700 -108 77
-6 169 -15 205 -21 41 -6 593 -12 1495 -15 l1430 -4 1565 -1563 c861 -860
1581 -1577 1600 -1593 19 -17 60 -52 91 -79 242 -211 582 -437 899 -599 41
-21 82 -42 90 -46 8 -4 42 -19 75 -34 33 -14 77 -34 97 -45 20 -11 42 -20 49
-20 6 0 30 -9 53 -19 90 -42 373 -136 521 -174 166 -42 187 -47 270 -62 44 -8
112 -22 150 -30 39 -8 153 -25 255 -37 159 -20 231 -23 510 -22 208 0 354 5
405 13 44 7 134 18 200 26 287 33 630 117 948 233 229 84 455 186 637 289 237
133 503 311 660 442 49 41 195 167 227 195 6 6 712 712 1570 1568 l1558 1557
1430 4 c902 3 1454 9 1495 15 36 6 128 15 205 22 195 15 561 71 710 108 33 8
89 20 125 27 82 16 187 42 270 66 190 54 248 72 280 84 19 7 73 25 120 39 97
31 206 70 266 97 22 11 45 19 52 19 6 0 26 7 44 15 18 8 67 28 108 45 128 54
493 231 621 302 200 111 238 133 287 164 28 19 76 49 105 67 664 423 1248 955
1732 1577 66 85 128 166 137 180 10 14 38 54 63 90 49 70 156 232 219 333 201
316 508 943 578 1177 5 19 14 40 18 45 4 6 23 55 40 110 18 55 41 123 51 150
31 86 50 148 63 205 7 30 20 78 29 105 42 136 88 337 131 570 9 50 23 127 31
173 9 45 20 131 25 190 6 59 15 132 21 164 31 177 32 354 36 5478 4 5036 1
5771 -27 5970 -5 36 -14 112 -20 170 -11 104 -36 265 -66 430 -9 47 -22 117
-29 155 -7 39 -20 94 -29 124 -9 30 -16 65 -16 77 0 13 -7 45 -16 71 -9 26
-23 73 -30 103 -18 79 -80 291 -109 375 -90 261 -131 366 -236 610 -64 148
-218 463 -265 540 -19 32 -34 59 -34 62 0 2 -19 37 -43 76 -23 40 -45 79 -50
87 -4 8 -20 34 -35 57 -15 23 -53 84 -85 135 -32 51 -80 125 -108 163 -27 39
-68 97 -91 130 -22 33 -71 98 -108 145 -36 47 -83 106 -102 133 -20 26 -58 73
-86 105 -27 31 -87 100 -132 152 -299 344 -731 736 -1125 1021 -101 72 -380
259 -388 259 -3 0 -32 17 -64 39 -137 91 -707 391 -743 391 -6 0 -28 9 -48 20
-47 24 -130 61 -207 90 -33 12 -80 30 -105 40 -130 51 -360 131 -465 161 -38
11 -101 29 -140 40 -38 11 -104 28 -145 38 -41 10 -95 23 -120 29 -120 30
-191 45 -255 57 -38 7 -108 20 -155 28 -141 26 -367 56 -500 67 -69 6 -159 16
-200 22 -83 12 -17661 20 -18035 8z m18070 -2183 c77 -10 178 -25 225 -34 47
-8 121 -21 165 -29 44 -7 105 -20 135 -29 30 -8 61 -15 70 -15 8 0 44 -8 80
-19 36 -11 108 -32 160 -46 52 -15 118 -35 145 -45 61 -22 103 -36 175 -61 30
-11 59 -24 64 -29 6 -6 17 -10 26 -10 8 0 38 -11 65 -25 28 -13 54 -25 58 -25
18 0 310 -148 442 -223 386 -220 706 -467 1031 -798 364 -370 644 -768 866
-1229 106 -220 118 -246 118 -254 0 -5 7 -22 15 -39 16 -37 29 -71 79 -217 20
-58 41 -118 47 -135 12 -32 37 -122 63 -225 9 -36 23 -90 31 -120 17 -65 55
-276 87 -485 l23 -150 0 -5475 0 -5475 -23 -145 c-37 -233 -73 -432 -87 -480
-8 -25 -17 -61 -20 -80 -4 -19 -15 -64 -26 -100 -61 -209 -73 -250 -90 -295
-67 -181 -117 -311 -129 -334 -5 -9 -23 -47 -41 -86 -42 -93 -120 -250 -149
-300 -13 -22 -32 -56 -43 -75 -58 -107 -92 -160 -257 -404 -8 -13 -47 -65 -87
-117 -316 -417 -751 -817 -1193 -1100 -220 -141 -491 -284 -720 -378 -30 -13
-71 -30 -90 -38 -19 -9 -53 -21 -75 -28 -22 -8 -71 -26 -110 -40 -38 -15 -99
-35 -135 -45 -176 -51 -250 -71 -310 -84 -36 -8 -94 -21 -130 -29 -214 -50
-514 -87 -790 -98 -113 -4 -879 -8 -1702 -8 -1493 -1 -1498 -1 -1585 -22 -172
-42 -313 -108 -436 -205 -39 -32 -844 -828 -1787 -1770 -943 -941 -1744 -1737
-1779 -1768 -35 -31 -91 -75 -125 -98 -33 -23 -81 -56 -106 -73 -131 -90 -352
-200 -510 -252 -25 -8 -59 -21 -76 -28 -18 -8 -49 -17 -70 -20 -22 -4 -59 -13
-84 -21 -25 -7 -112 -25 -195 -39 -131 -23 -179 -26 -376 -26 -232 0 -363 14
-534 58 -33 8 -85 21 -115 28 -70 17 -143 41 -198 66 -23 10 -47 19 -52 19 -5
0 -58 23 -117 52 -186 88 -364 203 -518 331 -33 28 -897 887 -1920 1909
l-1860 1858 -1655 1 c-910 0 -1747 4 -1860 8 -276 11 -576 48 -790 98 -36 8
-94 21 -130 29 -153 33 -395 108 -563 175 -53 21 -102 39 -107 39 -12 0 -147
62 -335 155 -176 87 -256 131 -345 189 -36 24 -85 55 -110 70 -113 68 -320
222 -484 360 -191 162 -523 504 -621 640 -16 23 -55 73 -85 111 -83 106 -208
289 -269 395 -18 30 -36 62 -41 70 -22 35 -140 253 -140 258 0 2 -21 48 -46
101 -68 142 -89 189 -114 256 -12 33 -31 80 -41 105 -22 54 -99 296 -127 400
-87 322 -137 618 -153 905 -6 117 -9 2040 -6 5525 3 4992 4 5351 20 5440 10
52 24 140 32 195 20 149 62 348 102 485 9 30 22 78 29 105 13 50 22 79 75 230
47 137 59 169 74 200 8 17 38 84 66 150 232 538 576 1028 1031 1470 213 208
416 372 658 531 47 31 96 65 111 74 80 55 407 229 564 300 132 60 330 138 383
151 20 6 53 16 72 24 112 43 435 128 576 150 44 7 99 18 121 24 23 6 88 16
145 21 57 6 153 17 213 24 92 12 1561 14 9100 12 8641 -1 8995 -2 9130 -19z"/>
<path d="M9980 22723 c-272 -42 -483 -151 -664 -344 -229 -242 -332 -589 -272
-919 42 -231 144 -421 315 -588 144 -141 303 -227 507 -277 l106 -25 7348 0
7349 0 102 25 c57 13 128 35 158 47 50 21 79 36 182 92 50 28 163 122 216 180
157 175 244 361 278 601 38 267 -42 567 -210 785 -23 30 -78 89 -121 130 -147
140 -292 218 -499 272 l-90 23 -7340 1 c-4037 1 -7351 0 -7365 -3z"/>
<path d="M9925 18384 c-33 -7 -80 -18 -105 -23 -78 -17 -224 -84 -312 -144
-189 -129 -340 -321 -416 -527 -82 -222 -83 -508 -3 -732 83 -236 275 -463
494 -583 79 -44 141 -68 262 -104 l90 -26 4500 0 4500 0 90 27 c179 53 264 93
385 181 112 82 243 236 308 362 36 71 72 153 72 167 0 7 10 42 22 78 19 57 21
88 22 255 1 181 -1 195 -28 285 -61 206 -141 342 -283 482 -151 149 -305 235
-528 294 -68 18 -221 19 -4540 21 -3786 1 -4479 -1 -4530 -13z"/>
</g>
</svg>
