<?xml version="1.0" standalone="no"?>
<!DOCTYPE svg PUBLIC "-//W3C//DTD SVG 20010904//EN"
 "http://www.w3.org/TR/2001/REC-SVG-20010904/DTD/svg10.dtd">
<svg version="1.0" xmlns="http://www.w3.org/2000/svg"
 width="3464.000000pt" height="3464.000000pt" viewBox="0 0 3464.000000 3464.000000"
 preserveAspectRatio="xMidYMid meet">

<g transform="translate(0.000000,3464.000000) scale(0.100000,-0.100000)"
fill="#000000" stroke="none">
<path d="M3258 31799 c-43 -5 -121 -25 -175 -44 -53 -20 -123 -42 -155 -51
-33 -8 -98 -37 -146 -64 -47 -28 -91 -50 -98 -50 -7 0 -34 -19 -60 -43 -27
-24 -76 -62 -109 -84 -70 -48 -190 -177 -236 -254 -17 -30 -48 -73 -70 -96
-22 -24 -42 -59 -49 -85 -15 -59 -38 -117 -61 -154 -32 -52 -49 -113 -69 -244
-24 -152 -25 -256 -4 -432 19 -170 29 -209 70 -284 18 -33 42 -93 53 -133 11
-40 33 -89 48 -108 15 -19 53 -70 83 -113 64 -91 250 -297 320 -355 83 -69
170 -146 275 -245 56 -52 145 -135 200 -185 54 -49 119 -111 144 -136 25 -25
68 -63 95 -84 27 -21 114 -102 192 -179 79 -78 173 -168 210 -201 37 -33 117
-110 178 -171 61 -61 145 -141 186 -179 137 -125 324 -299 445 -415 66 -64
151 -143 190 -175 38 -33 133 -120 210 -194 143 -136 170 -161 385 -361 69
-63 159 -149 201 -190 42 -41 107 -102 143 -135 36 -33 141 -134 233 -225 93
-91 179 -172 193 -182 14 -9 102 -90 195 -180 94 -89 186 -176 205 -192 19
-16 80 -71 135 -122 55 -51 116 -105 135 -119 19 -14 51 -42 71 -63 71 -75
263 -258 293 -280 26 -19 208 -191 446 -422 31 -30 114 -109 185 -175 70 -66
178 -169 239 -230 61 -60 131 -126 156 -146 25 -20 108 -99 185 -175 77 -77
153 -149 169 -161 16 -13 77 -67 135 -121 58 -54 133 -122 166 -149 33 -28
105 -94 160 -147 55 -53 124 -118 154 -144 94 -83 204 -186 230 -216 35 -39
56 -60 135 -131 37 -33 122 -114 190 -180 67 -66 239 -228 382 -360 142 -132
264 -246 270 -255 7 -8 69 -67 140 -130 70 -63 200 -184 288 -269 89 -84 181
-170 206 -190 25 -20 66 -56 91 -81 25 -25 76 -72 113 -105 56 -50 116 -109
268 -263 7 -7 49 -45 93 -84 94 -83 227 -210 271 -259 17 -19 60 -59 95 -91
132 -116 360 -325 541 -495 103 -97 198 -184 210 -192 13 -9 90 -83 171 -164
82 -81 168 -161 192 -177 24 -16 56 -45 72 -64 15 -19 100 -100 188 -182 88
-81 170 -162 183 -180 12 -18 42 -47 65 -63 24 -16 115 -101 203 -188 87 -87
175 -170 194 -184 19 -15 107 -96 195 -180 88 -85 203 -192 255 -239 148 -130
399 -362 402 -370 3 -7 120 -114 232 -213 32 -29 115 -108 185 -175 194 -190
233 -227 267 -250 17 -12 41 -36 54 -55 13 -19 37 -43 54 -55 17 -12 101 -90
187 -175 87 -84 178 -170 203 -191 25 -20 119 -108 208 -194 90 -87 179 -170
198 -186 19 -15 105 -95 191 -178 86 -82 175 -163 198 -179 22 -17 41 -34 41
-39 0 -4 52 -54 116 -111 64 -57 187 -174 273 -259 86 -85 173 -167 192 -181
18 -15 90 -82 159 -149 69 -67 212 -201 319 -298 107 -97 262 -242 345 -321
83 -79 171 -160 195 -180 24 -19 116 -107 205 -193 88 -87 175 -168 191 -179
17 -12 41 -37 55 -56 14 -18 39 -44 57 -56 37 -27 255 -228 298 -276 16 -19
43 -46 60 -60 16 -14 51 -48 77 -75 26 -27 59 -56 73 -66 14 -9 96 -86 182
-171 87 -85 170 -163 185 -175 15 -11 83 -73 150 -136 215 -202 500 -462 522
-478 12 -8 90 -83 173 -167 84 -83 169 -164 190 -180 21 -15 90 -80 153 -143
108 -108 268 -259 434 -410 39 -35 123 -115 186 -176 63 -62 161 -154 217
-206 56 -51 173 -160 260 -243 162 -153 238 -222 420 -385 56 -50 103 -94 105
-99 2 -5 75 -74 163 -155 88 -80 163 -149 168 -153 4 -5 51 -53 106 -108 54
-55 125 -123 157 -152 126 -112 240 -217 252 -235 8 -10 41 -41 75 -69 34 -28
96 -83 137 -123 41 -39 95 -89 120 -110 50 -43 457 -426 645 -607 66 -63 151
-144 189 -180 39 -35 97 -90 130 -121 34 -32 97 -90 141 -129 44 -40 122 -118
174 -173 51 -56 104 -108 117 -117 42 -27 133 -110 260 -234 67 -66 188 -178
270 -250 164 -145 270 -242 389 -359 44 -43 100 -94 125 -114 25 -20 65 -57
90 -82 25 -26 56 -55 70 -66 14 -10 36 -33 50 -49 14 -17 90 -90 170 -164 80
-73 159 -147 175 -164 17 -17 47 -46 69 -66 21 -20 85 -81 141 -136 57 -55
154 -148 216 -206 210 -197 314 -294 359 -336 25 -24 79 -73 120 -110 41 -37
121 -110 176 -162 147 -139 403 -373 433 -396 14 -11 94 -87 176 -169 83 -82
166 -160 185 -175 33 -25 59 -49 182 -168 29 -28 78 -65 108 -83 30 -18 69
-43 87 -56 17 -13 64 -40 105 -59 40 -19 91 -46 113 -60 54 -33 108 -43 321
-59 152 -11 212 -11 370 0 224 16 275 25 351 66 32 17 88 43 125 59 37 15 93
47 125 70 99 74 291 259 329 318 20 31 52 72 71 92 23 24 41 59 57 112 13 42
37 93 53 114 48 60 52 73 80 245 35 218 36 416 4 607 -27 161 -39 195 -85 255
-19 26 -41 66 -47 89 -16 58 -42 108 -74 137 -15 14 -35 38 -45 53 -28 45
-108 136 -200 227 -193 190 -439 424 -457 433 -23 13 -162 144 -189 179 -11
15 -59 62 -105 103 -111 99 -202 183 -297 275 -43 41 -167 156 -277 255 -109
99 -230 212 -269 250 -40 39 -123 117 -185 175 -63 58 -186 175 -275 262 -88
86 -178 170 -200 187 -21 17 -50 47 -65 66 -14 20 -38 43 -52 53 -45 29 -291
262 -321 303 -15 21 -37 43 -49 50 -24 12 -219 191 -364 333 -49 49 -110 105
-135 125 -66 52 -280 250 -475 438 -93 90 -182 171 -196 181 -14 9 -95 86
-180 171 -85 85 -170 166 -189 180 -33 25 -154 140 -389 371 -59 58 -127 121
-152 141 -24 20 -110 101 -191 180 -80 79 -190 182 -244 229 -54 47 -155 139
-224 205 -172 163 -469 436 -504 463 -16 12 -40 37 -55 56 -14 19 -89 91 -166
160 -77 70 -196 182 -265 249 -69 67 -183 176 -254 242 -71 66 -211 197 -310
291 -100 94 -224 208 -276 254 -89 78 -333 309 -544 514 -50 49 -111 105 -135
125 -25 20 -92 83 -150 141 -58 58 -122 117 -141 132 -19 14 -105 95 -190 180
-85 85 -163 159 -173 165 -10 5 -95 84 -190 175 -95 92 -231 220 -303 285
-304 273 -374 337 -374 344 0 3 -59 60 -132 125 -73 65 -169 155 -214 199 -45
44 -136 132 -204 195 -183 172 -346 327 -421 400 -36 36 -101 97 -143 135 -43
39 -146 137 -229 219 -84 81 -181 172 -217 201 -36 29 -74 63 -85 75 -11 13
-85 82 -165 154 -80 72 -195 180 -257 240 -62 60 -124 117 -138 126 -15 10
-99 89 -188 176 -89 88 -177 171 -197 186 -19 14 -104 93 -187 175 -84 81
-191 184 -239 228 -124 114 -288 269 -365 345 -36 36 -104 99 -150 140 -46 41
-151 140 -234 221 -82 80 -173 165 -201 190 -96 84 -401 368 -505 470 -57 56
-124 118 -148 138 -43 35 -174 162 -218 212 -11 13 -58 56 -103 94 -45 39
-133 120 -195 180 -62 61 -141 134 -175 164 -98 85 -349 319 -530 494 -90 88
-180 171 -200 185 -19 14 -62 53 -95 86 -33 34 -110 108 -172 166 -61 58 -169
159 -240 225 -70 66 -185 176 -255 245 -69 69 -161 154 -203 190 -42 36 -120
110 -172 165 -53 55 -106 107 -118 115 -26 17 -189 167 -410 375 -82 78 -204
189 -270 248 -66 59 -176 162 -245 229 -69 68 -154 148 -189 178 -35 30 -113
105 -175 166 -61 61 -145 142 -186 180 -210 192 -337 311 -460 429 -74 72
-155 148 -180 169 -25 22 -108 100 -185 175 -183 178 -387 368 -425 396 -33
25 -59 48 -225 212 -61 59 -127 120 -147 136 -20 15 -106 96 -190 180 -84 83
-162 159 -175 168 -12 8 -77 67 -145 130 -67 62 -158 148 -202 189 -44 41
-123 116 -176 166 -52 51 -111 104 -130 120 -19 15 -114 103 -210 196 -228
220 -292 281 -436 413 -65 61 -147 137 -181 170 -34 33 -95 89 -135 125 -40
36 -125 117 -189 180 -64 63 -149 144 -189 180 -39 36 -126 117 -193 181 -67
63 -214 200 -327 304 -177 163 -470 437 -519 486 -9 9 -42 35 -73 58 -32 23
-58 46 -58 51 0 8 -95 104 -225 228 -27 26 -68 61 -90 77 -22 16 -47 38 -55
50 -8 11 -27 31 -43 45 -33 28 -224 209 -328 310 -37 36 -99 94 -139 130 -40
36 -116 108 -169 159 -53 52 -125 120 -161 152 -36 31 -139 128 -231 215 -91
88 -248 235 -350 328 -101 93 -255 238 -343 323 -87 85 -175 166 -195 180 -20
15 -88 79 -152 142 -64 64 -145 142 -180 173 -35 31 -94 83 -130 117 -37 33
-86 69 -109 81 -23 12 -61 38 -83 59 -49 44 -263 154 -339 174 -29 8 -89 29
-133 47 -118 47 -299 61 -497 39z"/>
<path d="M8075 31374 c-66 -7 -180 -18 -253 -24 -73 -6 -163 -17 -200 -24 -37
-8 -93 -17 -124 -21 -62 -7 -108 -35 -108 -65 0 -25 97 -112 237 -213 195
-140 371 -312 589 -572 56 -66 145 -167 200 -225 156 -166 203 -223 339 -410
70 -96 156 -209 191 -250 102 -122 296 -309 334 -323 28 -9 1777 -13 8500 -18
6323 -4 8481 -9 8530 -17 36 -7 115 -17 175 -22 61 -6 135 -17 165 -25 30 -7
78 -16 105 -20 86 -10 283 -58 460 -111 44 -13 84 -24 90 -24 5 0 32 -9 60
-19 27 -11 84 -31 125 -46 41 -15 93 -36 116 -46 23 -10 47 -19 53 -19 7 0 29
-8 49 -19 20 -10 57 -27 82 -38 522 -233 993 -557 1401 -963 197 -196 393
-427 518 -610 13 -19 42 -62 65 -95 135 -195 322 -540 416 -765 17 -41 37 -88
44 -105 12 -28 42 -107 86 -230 37 -107 100 -325 129 -455 45 -197 54 -247
103 -605 18 -129 19 -10863 1 -11005 -35 -274 -71 -487 -104 -605 -10 -38 -19
-77 -19 -85 0 -8 -9 -46 -21 -85 -11 -38 -32 -108 -46 -155 -14 -47 -31 -100
-39 -118 -8 -18 -18 -50 -23 -70 -9 -38 -38 -113 -72 -188 -11 -23 -19 -47
-19 -53 0 -7 -9 -29 -20 -49 -10 -20 -55 -111 -99 -202 -129 -264 -229 -433
-390 -660 -17 -25 -39 -56 -48 -70 -26 -39 -222 -280 -267 -329 -130 -141
-273 -284 -359 -359 -117 -103 -153 -146 -141 -171 11 -22 120 -118 309 -271
77 -63 237 -209 355 -325 118 -116 269 -258 335 -315 216 -188 298 -267 410
-394 61 -70 120 -129 131 -132 39 -10 84 25 293 234 399 400 685 760 1002
1264 131 207 328 587 439 843 29 66 60 138 71 161 10 22 19 44 19 49 0 9 44
125 61 160 10 23 45 124 60 175 6 19 18 58 29 85 10 28 27 82 38 120 11 39 29
102 41 140 32 108 51 184 65 255 8 36 21 94 30 130 27 112 55 252 61 315 4 33
13 85 20 115 8 30 19 110 25 178 5 67 14 142 20 166 27 123 30 584 30 5746 0
5160 -3 5623 -30 5746 -5 23 -14 96 -20 161 -5 65 -17 150 -25 188 -8 39 -22
113 -31 165 -33 197 -40 230 -96 455 -41 164 -134 479 -173 585 -41 112 -125
333 -135 355 -5 11 -32 74 -60 140 -47 108 -208 441 -245 505 -8 14 -40 70
-71 125 -31 55 -66 116 -76 135 -22 38 -79 129 -109 172 -11 15 -19 30 -19 32
0 6 -42 68 -132 196 -25 36 -58 84 -74 107 -102 146 -360 462 -513 628 -127
137 -421 423 -539 524 -344 292 -557 447 -949 692 -160 100 -690 379 -720 379
-4 0 -33 12 -63 26 -105 49 -217 97 -275 118 -22 8 -71 26 -110 40 -38 14
-110 39 -160 56 -49 17 -103 35 -120 41 -16 6 -50 17 -75 24 -25 7 -99 29
-165 48 -237 69 -584 145 -785 173 -58 8 -126 18 -151 24 -26 5 -105 14 -176
20 -71 5 -192 17 -268 25 -123 13 -1258 15 -9155 14 -7415 -1 -9036 -4 -9135
-15z"/>
<path d="M2286 27248 c-25 -23 -70 -130 -185 -443 -45 -121 -135 -424 -179
-600 -56 -225 -63 -258 -96 -455 -9 -52 -23 -126 -31 -165 -8 -38 -19 -122
-25 -185 -5 -64 -14 -139 -20 -168 -5 -29 -14 -139 -20 -245 -13 -250 -13
-10737 0 -10995 5 -101 16 -229 24 -285 8 -56 20 -142 25 -192 17 -156 67
-435 102 -562 10 -40 19 -81 19 -91 0 -10 7 -42 15 -72 9 -30 20 -73 25 -95 6
-22 19 -69 29 -105 11 -36 32 -105 46 -155 15 -49 33 -106 41 -125 7 -19 18
-51 23 -70 13 -46 49 -150 61 -175 5 -11 23 -58 40 -105 18 -47 38 -98 45
-115 8 -16 37 -84 65 -150 115 -267 333 -681 461 -875 27 -41 52 -82 56 -90
16 -35 243 -358 330 -470 54 -69 225 -276 298 -361 111 -129 502 -520 593
-593 37 -29 99 -82 137 -116 39 -34 95 -81 125 -103 30 -22 87 -66 125 -96 39
-31 89 -70 112 -86 216 -153 222 -157 433 -291 58 -37 53 -34 232 -136 143
-81 390 -208 503 -258 104 -46 181 -82 199 -92 10 -5 42 -18 70 -28 107 -38
142 -51 171 -64 27 -13 110 -43 205 -75 248 -84 395 -128 590 -174 58 -14 137
-33 175 -42 39 -10 106 -23 150 -30 44 -7 116 -19 160 -28 134 -26 352 -56
505 -68 80 -6 150 -14 155 -18 6 -3 668 -8 1472 -11 l1463 -5 1572 -1571
c1586 -1584 1624 -1622 1733 -1709 33 -26 80 -64 104 -84 48 -40 318 -231 326
-231 3 0 27 -15 53 -33 51 -35 280 -165 377 -214 33 -16 69 -34 80 -40 40 -20
112 -52 175 -78 36 -15 79 -33 95 -41 32 -14 93 -37 165 -61 25 -8 61 -21 80
-28 32 -12 105 -35 275 -85 33 -10 80 -21 105 -24 25 -4 65 -13 90 -21 25 -8
72 -19 105 -23 33 -5 98 -16 145 -25 233 -44 343 -52 735 -52 392 0 503 8 735
52 47 9 110 19 141 23 113 15 391 90 609 165 180 63 233 82 305 115 22 10 67
30 100 45 78 35 160 76 265 132 144 77 154 83 200 113 25 16 52 33 60 37 17 8
171 113 280 189 104 73 308 243 430 361 113 107 2695 2688 2736 2734 52 57 59
47 -238 342 -151 150 -346 347 -434 438 -197 205 -476 469 -609 576 -55 45
-120 102 -145 127 -53 55 -75 57 -127 14 -21 -18 -619 -613 -1328 -1323 -710
-709 -1338 -1333 -1397 -1386 -58 -53 -135 -115 -170 -139 -34 -24 -84 -58
-110 -77 -26 -18 -50 -33 -52 -33 -2 0 -33 -17 -67 -38 -81 -49 -276 -142
-297 -142 -7 0 -29 -9 -49 -20 -21 -11 -46 -20 -56 -20 -10 0 -31 -7 -47 -15
-16 -8 -58 -22 -92 -30 -332 -76 -362 -80 -643 -80 -279 0 -312 4 -643 80 -34
8 -76 22 -92 30 -16 8 -37 15 -47 15 -10 0 -35 9 -56 20 -20 11 -42 20 -49 20
-6 0 -30 9 -52 19 -90 41 -193 93 -228 114 -21 12 -62 37 -93 55 -210 123
-167 82 -2160 2073 -1204 1202 -1899 1890 -1915 1893 -14 4 -851 7 -1860 9
-1641 2 -1846 5 -1940 19 -58 9 -141 21 -185 27 -125 16 -265 40 -320 56 -27
7 -68 17 -90 20 -40 6 -110 25 -265 72 -212 64 -258 80 -358 124 -23 10 -48
19 -54 19 -6 0 -32 9 -57 21 -25 12 -68 31 -96 44 -87 39 -338 165 -390 196
-27 16 -63 36 -80 44 -125 63 -537 356 -675 480 -127 114 -166 151 -260 245
-162 161 -388 420 -462 530 -10 14 -32 45 -49 70 -175 248 -254 383 -389 660
-45 91 -90 182 -100 202 -11 20 -20 42 -20 49 0 6 -9 30 -19 53 -17 37 -39 95
-91 241 -9 28 -29 88 -43 135 -14 47 -35 115 -46 153 -12 37 -21 74 -21 83 0
9 -9 48 -19 87 -34 125 -69 327 -104 607 -17 138 -17 10862 0 11000 7 52 19
142 28 200 9 58 17 144 18 191 2 84 1 87 -37 145 -152 231 -387 510 -549 653
-56 50 -127 118 -157 153 -30 34 -165 175 -301 313 -135 137 -274 288 -309
335 -66 87 -231 265 -262 281 -12 7 -24 3 -42 -13z"/>
<path d="M15793 22731 c-40 -3 -77 -11 -83 -17 -8 -8 6 -40 56 -120 143 -233
208 -312 372 -451 188 -159 313 -273 567 -518 395 -381 386 -373 969 -855 103
-85 201 -161 217 -167 73 -32 271 -34 3489 -30 l3225 3 90 26 c281 82 465 207
627 426 118 159 198 412 198 627 0 104 -29 270 -64 367 -54 152 -183 342 -297
438 -151 128 -280 195 -475 247 l-99 27 -4360 1 c-2398 1 -4392 -1 -4432 -4z"/>
<path d="M9905 18403 c-108 -10 -248 -52 -375 -112 -233 -110 -440 -341 -536
-600 -35 -93 -64 -260 -64 -366 0 -104 29 -270 64 -367 68 -190 240 -416 392
-515 11 -7 35 -23 54 -36 78 -51 213 -107 335 -139 l90 -23 1995 -3 c1097 -2
2032 0 2077 3 128 10 129 14 38 125 -43 52 -204 221 -359 375 -155 154 -316
323 -357 375 -40 52 -155 196 -254 320 -99 124 -225 288 -279 365 -77 108
-134 175 -255 295 -86 85 -181 183 -210 217 -35 41 -67 67 -90 75 -27 9 -303
12 -1131 14 -602 0 -1113 -1 -1135 -3z"/>
</g>
</svg>
